<svg width="105" height="22" viewBox="0 0 105 22" fill="none" xmlns="http://www.w3.org/2000/svg">
<path d="M69.6972 0H65.2894V19.1123C69.2839 19.2188 73.2784 19.3785 77.2729 19.5914V16.2374C74.7247 16.131 72.2454 15.9713 69.6972 15.918V0ZM104.821 0H100L96.8322 5.74965L93.9397 0H89.1876L94.3529 10.2216L88.6366 20.2835C90.2206 20.39 91.7358 20.5497 93.2509 20.6562L96.4879 14.8L99.7248 21.2418C101.378 21.4015 103.099 21.5612 104.752 21.7742L99.0361 10.2748L104.821 0ZM50.1379 18.9526H54.5456V11.1799H60.5374V7.82592H54.5456V3.4072H62.4657V0H50.1379V18.9526ZM33.6778 3.4072H38.2921V19.1655C39.7384 19.1123 41.2536 19.1123 42.6998 19.059V3.4072H47.3142V0H33.6778V3.4072ZM18.5951 20.1238C22.6585 19.8576 26.7218 19.5914 30.8541 19.4317V16.0777C28.237 16.1842 25.6199 16.3439 23.0028 16.5036V11.3928C24.7246 11.3928 26.9973 11.3396 28.9946 11.3396V7.98563C27.4105 7.98563 24.8623 7.98563 23.0028 8.03887V3.4072H30.8541V0H18.5951V20.1238ZM9.91738 12.3511L4.20111 0H0V21.7742C1.44629 21.6144 2.96144 21.4547 4.40773 21.295V9.47628L9.50416 20.8159C11.0882 20.6562 12.7411 20.5497 14.3251 20.39V0H9.91738V12.3511ZM80.9231 19.8044C82.3694 19.9108 83.8845 19.9641 85.3308 20.0706V0H80.9231V19.8044Z" fill="white" fill-opacity="0.8"/>
</svg>
