<svg width="154" height="68" viewBox="0 0 154 68" fill="none" xmlns="http://www.w3.org/2000/svg">
<path d="M28.4683 12.8655C28.5452 15.0528 30.1695 16.454 32.9183 16.454H33.1586C35.2875 16.454 36.5225 15.3311 36.5225 13.9396C36.5225 12.6653 35.8257 11.9184 34.0813 11.5522L30.9192 10.898C27.7859 10.2291 26.2001 8.40802 26.2001 5.5275C26.2001 2.64697 28.9056 -0.0529168 33.0625 0.000787978C37.3202 -0.03827 39.9777 2.49074 39.9921 6.05966H36.8156C36.6907 4.05306 35.1769 2.87155 33.1153 2.87155H32.8558C30.7654 2.87155 29.3958 4.014 29.3958 5.42985C29.3958 6.74318 30.1599 7.4511 31.7698 7.77821L34.6243 8.35432C37.9161 9.02319 39.723 10.7662 39.723 13.7248C39.7615 16.9861 36.9983 19.3491 32.7117 19.3101C27.9926 19.3101 25.436 16.869 25.3062 12.846L28.4683 12.8655ZM42.4142 0.26443H56.1966V3.14984H45.5907V7.9735H54.6107V10.8589H45.5907V16.1952H56.4561V19.066H42.4142V0.26443ZM66.0192 0.000787978C70.4067 -0.03827 73.4246 2.69091 73.6313 6.34771H70.4548C70.3242 5.35286 69.8218 4.44723 69.0516 3.81871C68.2251 3.17927 67.2064 2.84982 66.1682 2.8862H65.8991C62.5688 2.83738 60.363 5.67885 60.4015 9.67741C60.363 13.676 62.5688 16.5126 65.8991 16.4686H66.1682C67.2023 16.5083 68.219 16.1898 69.0516 15.5654C69.8253 14.935 70.3255 14.022 70.4452 13.0218H73.6217C73.4006 16.7323 70.4067 19.3687 66.0096 19.3687C60.5601 19.4175 57.1673 15.3555 57.2202 9.70182C57.1865 4.03841 60.5505 -0.0626813 66.0192 0.000787978ZM75.9908 0.26443H84.2997C87.529 0.225372 90.0664 2.48097 90.0328 5.37615C90.0328 7.74892 88.9083 9.42841 86.9332 10.1217C88.9467 10.1217 89.7733 10.9761 89.7733 12.7728V19.066H86.5968V13.5832C86.5968 12.1674 86.2267 11.7768 84.8331 11.7768H79.1673V19.066H75.9908V0.26443ZM83.526 8.93042C85.6549 8.93042 86.8899 7.77821 86.8899 5.94249C86.8899 4.10676 85.727 3.14984 83.526 3.14984H79.1673V8.93042H83.526ZM92.9834 0.26443H106.766V3.14984H96.1551V7.9735H105.175V10.8589H96.1551V16.1952H107.021V19.066H92.9834V0.26443ZM114.291 3.14984H107.799V0.26443H123.955V3.14984H117.453V19.066H114.291V3.14984ZM46.7056 24.6024V43.404H43.5819V27.8296L38.6129 43.404H34.9319L29.8379 27.8638V43.404H26.7143V24.6024H31.7602L36.7916 40.006L41.6837 24.6024H46.7056ZM50.1127 24.6024H63.9144V27.483H53.2892V32.3115H62.3093V35.1969H53.2892V40.5235H64.1547V43.404H50.1127V24.6024ZM66.3172 24.6024H72.7711C78.1533 24.5634 81.8536 28.0493 81.8152 34.0008C81.8681 39.9522 78.2158 43.4431 72.848 43.404H66.3172V24.6024ZM72.526 40.5235C74.4771 40.5235 75.9716 39.9962 77.0433 38.9367C78.1149 37.8773 78.6579 36.232 78.6579 33.991C78.6579 31.7501 78.1149 30.0852 77.0433 29.0599C75.9716 28.0347 74.4771 27.4732 72.526 27.4732H69.5081V40.5235H72.526ZM84.2661 24.6024H87.4618V43.404H84.2853L84.2661 24.6024ZM102.013 38.8H93.7955L92.0511 43.404H88.7497L96.0782 24.6024H99.9227L107.131 43.404H103.801L102.013 38.8ZM100.917 35.9146L97.8995 27.9712L94.8912 35.9146H100.917ZM41.9432 48.9356V67.742H37.7191L29.886 53.188V67.742H26.7143V48.9356H30.9432L38.7811 63.4701V48.9356H41.9432ZM45.3552 48.9356H59.1376V51.821H48.5365V56.6349H57.5566V59.5154H48.5365V64.8517H59.4019V67.7274H45.3552V48.9356ZM66.6632 51.821H60.1708V48.9356H76.332V51.821H69.8253V67.742H66.6632V51.821ZM100.836 48.9356L96.2945 67.742H92.128L88.9371 53.1587L85.6981 67.742H81.5317L77.0144 48.9356H80.2918L83.723 64.2659L87.0004 48.9356H90.9795L94.2281 64.2805L97.5439 48.9356H100.836ZM110.048 48.6768C115.2 48.6085 118.967 52.4118 118.914 58.3388C118.967 64.2659 115.2 68.0691 110.048 68.0008C104.887 68.0691 101.105 64.2659 101.172 58.3388C101.105 52.4118 104.887 48.6085 110.048 48.6768ZM110.178 65.13C113.542 65.13 115.752 62.562 115.752 58.3388C115.752 54.1157 113.547 51.5476 110.178 51.5476H109.918C106.554 51.5476 104.344 54.1157 104.344 58.3388C104.344 62.562 106.55 65.13 109.918 65.13H110.178ZM121.303 48.9356H129.616C132.841 48.8965 135.383 51.1521 135.345 54.0522C135.345 56.425 134.22 58.1045 132.25 58.7977C134.259 58.7977 135.085 59.6521 135.085 61.4488V67.742H131.913V62.2593C131.913 60.8434 131.539 60.4479 130.145 60.4479H124.465V67.742H121.288L121.303 48.9356ZM128.843 57.6113C130.972 57.6113 132.183 56.4543 132.183 54.6185C132.183 52.7828 131.02 51.8259 128.843 51.8259H124.465V57.6113H128.843ZM144.23 59.076L141.467 62.0054V67.7518H138.295V48.9356H141.467V57.7236L149.858 48.9356H153.861L146.513 56.6886L154 67.742H150.064L144.23 59.076ZM3.1813 17.5232L6.84797 11.0786H0V7.98815H6.84797L3.1813 1.54358L5.86282 0.000787978L9.52949 6.44536L13.1913 0.000787978L15.8104 1.54358L12.1485 7.98815H18.9965V11.0786H12.1485L15.8104 17.5232L13.1337 19.066L9.46702 12.6214L5.80516 19.066L3.1813 17.5232Z" fill="white" fill-opacity="0.8"/>
</svg>
